<?xml version="1.0" encoding="UTF-8" standalone="no"?>
<svg
   xmlns:dc="http://purl.org/dc/elements/1.1/"
   xmlns:cc="http://creativecommons.org/ns#"
   xmlns:rdf="http://www.w3.org/1999/02/22-rdf-syntax-ns#"
   xmlns:svg="http://www.w3.org/2000/svg"
   xmlns="http://www.w3.org/2000/svg"
   xmlns:sodipodi="http://sodipodi.sourceforge.net/DTD/sodipodi-0.dtd"
   xmlns:inkscape="http://www.inkscape.org/namespaces/inkscape"
   version="1.1"
   id="svg2"
   viewBox="0 0 240 180"
   height="180"
   width="240"
   inkscape:version="0.91 r13725"
   sodipodi:docname="bb_flag.svg"
   inkscape:export-filename="C:\Users\Luke\Desktop\bb_flag.png"
   inkscape:export-xdpi="90"
   inkscape:export-ydpi="90">
  <metadata
     id="metadata15">
    <rdf:RDF>
      <cc:Work
         rdf:about="">
        <dc:format>image/svg+xml</dc:format>
        <dc:type
           rdf:resource="http://purl.org/dc/dcmitype/StillImage" />
      </cc:Work>
    </rdf:RDF>
  </metadata>
  <defs
     id="defs13" />
  <sodipodi:namedview
     pagecolor="#ffffff"
     bordercolor="#666666"
     borderopacity="1"
     objecttolerance="10"
     gridtolerance="10"
     guidetolerance="10"
     inkscape:pageopacity="0"
     inkscape:pageshadow="2"
     inkscape:window-width="1920"
     inkscape:window-height="1017"
     id="namedview11"
     showgrid="false"
     inkscape:zoom="1.2"
     inkscape:cx="-72.083333"
     inkscape:cy="90"
     inkscape:window-x="-8"
     inkscape:window-y="-8"
     inkscape:window-maximized="1"
     inkscape:current-layer="svg2" />
  <path
     id="rect4136"
     d="m 0.98808473,11.534496 c 0,0 32.49615027,-9.4329589 49.24958427,-10.4092735 42.431964,-2.4727413 84.465731,29.4001585 126.971781,29.7128435 20.49523,0.150765 61.30029,-8.741809 61.30029,-8.741809 0,0 -27.69647,82.586433 -58.14925,106.926653 -31.79163,25.41034 -79.19692,0.97071 -116.91935,16.5947 -21.711174,8.9924 -62.45305527,32.6655 -62.45305527,32.6655 z"
     style="opacity:1;fill:#ff6699;fill-opacity:1;stroke:#ffffff;stroke-width:1.97616947;stroke-linecap:butt;stroke-linejoin:miter;stroke-miterlimit:4;stroke-dasharray:none;stroke-dashoffset:0;stroke-opacity:1"
     inkscape:export-filename="C:\Users\Luke\Desktop\rect4136.png"
     inkscape:export-xdpi="90"
     inkscape:export-ydpi="90" />
  <path
     style="fill:#ffffff;fill-opacity:1;fill-rule:evenodd;stroke:#ff6699;stroke-width:2.17359853;stroke-linecap:butt;stroke-linejoin:miter;stroke-miterlimit:4;stroke-dasharray:none;stroke-opacity:1"
     d="m 148.42906,80.441779 35.55552,5.206868 c 0,0 5.31097,-7.197507 8.71391,-6.699211 3.40294,0.498347 6.42826,5.15712 5.72329,8.813524 -0.70487,3.656405 -8.71392,6.699189 -8.71392,6.699189 0,0 6.42817,5.15716 5.7233,8.813491 -0.70488,3.65644 -5.31113,7.19764 -8.71407,6.69932 -3.40285,-0.49837 -5.72331,-8.81351 -5.72331,-8.81351 l -35.55547,-5.206882 z"
     id="path4188-11-0" />
  <path
     style="fill:#ffffff;fill-opacity:1;fill-rule:evenodd;stroke:#ff6699;stroke-width:2.17359853;stroke-linecap:butt;stroke-linejoin:miter;stroke-miterlimit:4;stroke-dasharray:none;stroke-opacity:1"
     d="m 137.08092,60.957352 32.72897,-14.850048 c 0,0 0.58408,-8.929031 3.71646,-10.350325 3.1324,-1.421256 8.19268,0.862564 9.57307,4.320582 1.3804,3.45799 -3.71646,10.350314 -3.71646,10.350314 0,0 8.19265,0.862643 9.57307,4.320551 1.38044,3.458023 -0.58408,8.929227 -3.71651,10.350509 -3.13234,1.421186 -9.57309,-4.320565 -9.57309,-4.320565 L 142.9375,75.628374 Z"
     id="path4188-11" />
  <path
     style="fill:#ffffff;fill-opacity:1;fill-rule:evenodd;stroke:#ff6699;stroke-width:2.17359853;stroke-linecap:butt;stroke-linejoin:miter;stroke-miterlimit:4;stroke-dasharray:none;stroke-opacity:1"
     d="M 60.524062,67.643813 25.15679,61.280571 c 0,0 -2.753341,-8.513094 -6.138238,-9.122139 -3.384913,-0.608997 -7.731328,2.847171 -8.222551,6.538445 -0.491244,3.691257 6.138259,9.122126 6.138259,9.122126 0,0 -7.7312531,2.847233 -8.222545,6.538417 -0.4912781,3.691292 2.753436,8.513263 6.138346,9.122298 3.384854,0.608947 8.222569,-6.538431 8.222569,-6.538431 l 35.367218,6.363203 z"
     id="path4188-11-0-1" />
  <path
     style="fill:#ffffff;fill-opacity:1;fill-rule:evenodd;stroke:#ff6699;stroke-width:2.17359853;stroke-linecap:butt;stroke-linejoin:miter;stroke-miterlimit:4;stroke-dasharray:none;stroke-opacity:1"
     d="m 66.894178,111.93408 -32.728961,14.85007 c 0,0 -0.584065,8.92903 -3.716446,10.35033 -3.13241,1.42125 -8.192703,-0.86257 -9.573089,-4.32059 -1.380407,-3.458 3.716465,-10.35032 3.716465,-10.35032 0,0 -8.192657,-0.86264 -9.573088,-4.32056 -1.38043,-3.45802 0.584124,-8.92923 3.716511,-10.35048 3.132359,-1.42121 9.573104,4.32054 9.573104,4.32054 L 61.03761,97.263071 Z"
     id="path4188" />
  <path
     inkscape:connector-curvature="0"
     d="m 164.2583,91.215223 q 0.47276,4.473943 -0.85475,7.884877 -1.27364,3.40522 -3.78061,5.95994 -2.50697,2.55471 -5.96091,4.39211 -3.4058,1.77779 -7.19734,2.99687 -3.79153,1.21907 -7.69387,1.90482 -3.84849,0.68004 -7.24084,1.03925 -3.3385,0.35351 -6.97472,0.46602 -3.57667,0.16071 -7.19322,-0.0559 -3.61654,-0.21661 -7.16527,-0.82196 -3.55441,-0.65924 -6.78317,-1.84352 L 95.96965,43.722143 q 2.884418,-1.559068 6.17424,-2.888534 3.28413,-1.383369 6.71583,-2.400819 3.47984,-1.077057 6.94571,-1.771091 3.46017,-0.747936 6.74482,-1.095745 3.82313,-0.404827 7.75136,-0.33023 3.98209,0.0689 7.70944,0.818837 3.72734,0.749942 7.04412,2.251939 3.31108,1.448092 5.9056,3.84416 2.64835,2.390365 4.31091,5.757212 1.71639,3.361147 2.20054,7.942897 0.31897,3.018565 -0.26348,5.751037 -0.58246,2.732473 -1.97572,5.005741 -1.39327,2.273269 -3.5492,4.027727 -2.16162,1.700556 -4.9953,2.709193 3.59686,0.545734 6.63872,2.02234 3.09568,1.470895 5.35572,3.793367 2.31389,2.316771 3.72688,5.383016 1.46684,3.060532 1.84846,6.672033 z M 133.65747,63.387048 q -0.16518,-1.563185 -0.92525,-2.572824 -0.76578,-1.063538 -1.80906,-1.661645 -0.98945,-0.603808 -2.1544,-0.807488 -1.11112,-0.209382 -1.97267,-0.118152 -1.07693,0.114035 -2.06585,0.545786 -0.98891,0.431752 -1.91259,0.965607 l 0.9414,12.000664 q 1.23847,-0.131141 3.04648,-0.540614 1.80801,-0.409473 3.40322,-1.286967 1.64336,-0.937098 2.67989,-2.464012 1.03084,-1.58082 0.76883,-4.060355 z m -5.78939,18.382016 q -1.56157,0.165353 -2.98125,0.642716 l 1.08327,12.312676 q 0.82479,0.07619 1.59573,0.158064 0.81909,0.02229 1.57295,-0.05754 1.13078,-0.119737 2.45417,-0.477904 1.31769,-0.412051 2.42827,-1.23823 1.1049,-0.880088 1.72774,-2.199677 0.6767,-1.325292 0.46026,-3.373601 -0.21644,-2.04831 -1.16085,-3.256456 -0.89055,-1.213849 -2.09538,-1.794851 -1.21053,-0.634898 -2.57948,-0.707963 -1.37465,-0.126975 -2.50543,-0.0072 z"
     style="font-style:normal;font-variant:normal;font-weight:normal;font-stretch:normal;font-size:90px;line-height:125%;font-family:'Luckiest Guy';-inkscape-font-specification:'Luckiest Guy';text-align:center;letter-spacing:0px;word-spacing:0px;text-anchor:middle;fill:#ffffff;fill-opacity:1;stroke:#ff6699;stroke-width:2.46558475;stroke-linecap:butt;stroke-linejoin:miter;stroke-miterlimit:4;stroke-dasharray:none;stroke-opacity:1"
     id="path4160" />
  <path
     inkscape:connector-curvature="0"
     d="m 108.56346,96.798959 q 0.47276,4.473941 -0.85474,7.884871 -1.27366,3.40522 -3.78062,5.95995 -2.50696,2.55471 -5.960912,4.3921 -3.405799,1.7778 -7.197332,2.99687 -3.791534,1.21908 -7.693873,1.90483 -3.848493,0.68003 -7.240844,1.03924 -3.338503,0.35351 -6.974719,0.46603 -3.576674,0.16071 -7.19322,-0.0559 -3.616544,-0.21662 -7.165267,-0.82196 -3.554418,-0.65924 -6.783172,-1.84352 L 40.27481,49.305883 q 2.884418,-1.559068 6.174243,-2.888534 3.284128,-1.383368 6.715823,-2.400819 3.479844,-1.077056 6.945713,-1.77109 3.460173,-0.747937 6.744829,-1.095746 3.823125,-0.404827 7.75136,-0.33023 3.98208,0.0689 7.709431,0.818838 3.72735,0.749941 7.044125,2.251938 3.31108,1.448092 5.90559,3.84416 2.648358,2.390365 4.310911,5.757213 1.716405,3.361146 2.200545,7.942896 0.31897,3.018565 -0.26348,5.751037 -0.58245,2.732473 -1.975719,5.005741 -1.393267,2.273269 -3.549196,4.027727 -2.161627,1.700557 -4.995309,2.709188 3.596873,0.545733 6.638718,2.022341 3.095696,1.470894 5.355726,3.793366 2.31389,2.316771 3.72688,5.383016 1.46684,3.060532 1.84846,6.672034 z M 77.962636,68.970788 q -0.16518,-1.563185 -0.92526,-2.572823 -0.765775,-1.063539 -1.809063,-1.661645 -0.989443,-0.603808 -2.154401,-0.807488 -1.111111,-0.209382 -1.972661,-0.118154 -1.076937,0.114036 -2.065852,0.545788 -0.988914,0.431752 -1.91259,0.965607 l 0.941399,12.000664 q 1.238477,-0.131142 3.046486,-0.540615 1.808008,-0.409472 3.403214,-1.286966 1.643356,-0.937098 2.679894,-2.464013 1.030843,-1.58082 0.768834,-4.060355 z m -5.789403,18.382013 q -1.561558,0.165351 -2.981247,0.642715 l 1.083268,12.312674 q 0.82479,0.0762 1.595733,0.15806 0.819094,0.0223 1.572951,-0.0575 1.130782,-0.11974 2.454169,-0.477904 1.317692,-0.412052 2.428276,-1.23823 1.104888,-0.880088 1.727739,-2.199678 0.676698,-1.325292 0.460256,-3.373601 -0.216442,-2.048309 -1.160846,-3.256456 -0.890556,-1.213849 -2.095386,-1.79485 -1.210524,-0.634899 -2.579478,-0.707964 -1.374651,-0.126974 -2.505435,-0.0072 z"
     style="font-style:normal;font-variant:normal;font-weight:normal;font-stretch:normal;font-size:90px;line-height:125%;font-family:'Luckiest Guy';-inkscape-font-specification:'Luckiest Guy';text-align:center;letter-spacing:0px;word-spacing:0px;text-anchor:middle;fill:#ffffff;fill-opacity:1;stroke:#ff6699;stroke-width:2.46558475;stroke-linecap:butt;stroke-linejoin:miter;stroke-miterlimit:4;stroke-dasharray:none;stroke-opacity:1"
     id="path4158" />
</svg>
